<svg width="180" height="28" viewBox="0 0 180 28" fill="none" xmlns="http://www.w3.org/2000/svg">
<path d="M6.52356 28C5.21746 28 3.89746 27.7826 2.56357 27.3479C1.22968 26.8991 0.375157 26.4643 0 26.0436L0.541893 22.6566C1.01431 23.1195 1.79936 23.5192 2.89704 23.8557C4.00862 24.1923 5.14104 24.3606 6.2943 24.3606C7.12798 24.3606 7.69766 24.2554 8.00334 24.0451C8.32292 23.8347 8.48271 23.5402 8.48271 23.1615C8.48271 22.7969 8.20482 22.4743 7.64903 22.1938C7.09324 21.8993 6.19009 21.5627 4.93956 21.1841C1.7021 20.2024 0.0833682 18.1688 0.0833682 15.0834C0.0833682 13.8212 0.44463 12.7413 1.16715 11.8437C1.88968 10.9321 2.81368 10.273 3.93915 9.86627C5.06462 9.45955 6.32209 9.2562 7.71156 9.2562C10.0875 9.2562 11.8383 9.69797 12.9637 10.5815C13.2139 10.8199 13.3389 10.9391 13.3389 10.9391L12.4219 13.9474C11.5048 13.0358 10.2404 12.58 8.62861 12.58C7.30861 12.58 6.64861 12.9727 6.64861 13.7581C6.64861 13.9825 6.69724 14.1718 6.79451 14.3261C6.89177 14.4663 7.05156 14.5925 7.27387 14.7047C7.51008 14.8029 7.73935 14.8871 7.96166 14.9572C8.18398 15.0133 8.49661 15.0974 8.89955 15.2096C9.3025 15.3078 9.64987 15.3989 9.94165 15.4831C11.5673 16.0301 12.7484 16.8014 13.4848 17.7971C14.2212 18.7929 14.5894 20.0341 14.5894 21.5207C14.5894 25.8402 11.9008 28 6.52356 28Z" fill="#7F56D9"/>
<path d="M21.2454 28C19.3696 28 18.0565 27.432 17.3062 26.296C16.5698 25.16 16.2016 23.2387 16.2016 20.5319V13.3794H14.7635V10.4553L17.2229 9.67694L19.3487 4.77536H23.0169V9.67694H26.435V13.3794H22.9544V21.2051C22.9544 22.3271 23.1142 23.0704 23.4338 23.435C23.7534 23.7996 24.2466 23.982 24.9136 23.982C25.2054 23.982 25.4694 23.9469 25.7056 23.8768C25.9418 23.8067 26.1363 23.7085 26.2891 23.5823V26.4433C26.0807 26.6536 25.8098 26.864 25.4763 27.0744C25.1428 27.2707 24.587 27.4741 23.8089 27.6844C23.0447 27.8948 22.1902 28 21.2454 28Z" fill="#7F56D9"/>
<path d="M37.2789 25.686L37.0705 25.9174C36.9316 26.0856 36.7162 26.282 36.4244 26.5064C36.1465 26.7308 35.82 26.9552 35.4448 27.1796C35.0836 27.404 34.6389 27.5933 34.1109 27.7476C33.5829 27.9159 33.041 28 32.4853 28C28.7337 28 26.8579 26.1277 26.8579 22.3832C26.8579 21.6539 26.9899 20.9877 27.2539 20.3847C27.5179 19.7676 27.8583 19.2487 28.2752 18.8279C28.692 18.4072 29.1922 18.0356 29.7758 17.713C30.3594 17.3764 30.9429 17.117 31.5265 16.9346C32.124 16.7383 32.7493 16.577 33.4023 16.4508C34.0554 16.3246 34.6389 16.2404 35.153 16.1983C35.6671 16.1563 36.1604 16.1352 36.6328 16.1352V15.7566C36.6328 14.9011 36.4036 14.298 35.945 13.9474C35.5004 13.5968 34.7779 13.4215 33.7775 13.4215C32.916 13.4215 32.0198 13.5267 31.0888 13.737C30.1579 13.9334 29.4284 14.1718 28.9004 14.4523L27.5665 11.5913C28.5114 10.9742 29.7411 10.4343 31.2556 9.97145C32.7701 9.49462 34.3124 9.2562 35.8825 9.2562C37.272 9.2562 38.4183 9.39644 39.3214 9.67694C40.2246 9.9434 40.9541 10.4062 41.5099 11.0654C42.0795 11.7105 42.4825 12.5379 42.7187 13.5477C42.9549 14.5435 43.073 15.8127 43.073 17.3554V25.9174L43.6566 27.5582H37.9459L37.2789 25.686ZM35.6324 24.2975C35.813 24.2975 35.9798 24.2625 36.1326 24.1923C36.2993 24.1082 36.4244 24.0311 36.5078 23.9609C36.5911 23.8768 36.6328 23.8347 36.6328 23.8347V18.7859C35.7852 18.7859 35.1113 19.0243 34.6111 19.5011C34.1109 19.9639 33.8608 20.6862 33.8608 21.6679C33.8608 23.421 34.4514 24.2975 35.6324 24.2975Z" fill="#7F56D9"/>
<path d="M52.4705 27.5582H45.7385V13.9474L44.488 13.169V10.7919L48.969 9.67694H50.6572L51.2617 14.6837C51.8313 11.2477 53.6585 9.52968 56.7431 9.52968C57.0905 9.52968 57.4517 9.59279 57.8269 9.71901L57.1183 17.2081C56.8265 16.9416 56.1873 16.8084 55.2008 16.8084C53.7835 16.8084 52.8734 17.1871 52.4705 17.9444V27.5582Z" fill="#7F56D9"/>
<path d="M64.3542 28C62.4784 28 61.1654 27.432 60.4151 26.296C59.6786 25.16 59.3104 23.2387 59.3104 20.5319V13.3794H57.8723V10.4553L60.3317 9.67694L62.4576 4.77536H66.1258V9.67694H69.5439V13.3794H66.0632V21.2051C66.0632 22.3271 66.223 23.0704 66.5426 23.435C66.8622 23.7996 67.3555 23.982 68.0224 23.982C68.3142 23.982 68.5782 23.9469 68.8144 23.8768C69.0506 23.8067 69.2451 23.7085 69.398 23.5823V26.4433C69.1896 26.6536 68.9186 26.864 68.5851 27.0744C68.2517 27.2707 67.6959 27.4741 66.9178 27.6844C66.1536 27.8948 65.299 28 64.3542 28Z" fill="#7F56D9"/>
<path d="M80.7421 16.6822C80.7421 14.9011 80.6517 13.6389 80.4711 12.8956C80.2905 12.1523 79.957 11.7806 79.4707 11.7806C79.0539 11.7806 78.7134 11.8578 78.4494 12.012C78.1854 12.1523 77.9909 12.3837 77.8659 12.7062C77.7408 13.0148 77.6574 13.3373 77.6158 13.6739C77.588 13.9965 77.5741 14.4102 77.5741 14.9151V16.6822H80.7421ZM79.0747 28C77.5185 28 76.1638 27.7616 75.0105 27.2847C73.8711 26.8079 72.968 26.1417 72.301 25.2862C71.648 24.4308 71.1686 23.4701 70.8629 22.4042C70.5573 21.3243 70.4044 20.1252 70.4044 18.8069C70.4044 15.6654 71.1964 13.2883 72.7804 11.6754C74.3644 10.0626 76.5806 9.2562 79.429 9.2562C82.1663 9.2562 84.1254 9.90834 85.3065 11.2126C86.4875 12.5029 87.078 14.5855 87.078 17.4606V19.7956H77.5532V20.1953C77.5532 21.0228 77.6366 21.703 77.8033 22.2359C77.984 22.7688 78.241 23.1615 78.5745 23.414C78.908 23.6664 79.2484 23.8347 79.5958 23.9189C79.9431 24.003 80.3669 24.0451 80.8671 24.0451C81.3534 24.0451 81.8745 23.982 82.4303 23.8557C83 23.7295 83.5696 23.5332 84.1393 23.2667C84.7229 23.0003 85.2092 22.6847 85.5983 22.3201L86.8279 24.4448C86.3138 25.2863 85.5566 25.9945 84.5562 26.5695C83.5696 27.1305 82.6178 27.5091 81.7008 27.7055C80.7837 27.9018 79.9084 28 79.0747 28Z" fill="#7F56D9"/>
<path d="M96.0678 27.5582H89.3358V13.9474L88.0853 13.169V10.7919L92.5663 9.67694H94.2545L94.859 14.6837C95.4286 11.2477 97.2558 9.52968 100.34 9.52968C100.688 9.52968 101.049 9.59279 101.424 9.71901L100.716 17.2081C100.424 16.9416 99.7846 16.8084 98.7981 16.8084C97.3809 16.8084 96.4708 17.1871 96.0678 17.9444V27.5582Z" fill="#7F56D9"/>
<path d="M108.556 28C107.25 28 105.93 27.7826 104.596 27.3479C103.262 26.8991 102.408 26.4643 102.032 26.0436L102.574 22.6566C103.047 23.1195 103.832 23.5192 104.929 23.8557C106.041 24.1923 107.173 24.3606 108.327 24.3606C109.16 24.3606 109.73 24.2554 110.036 24.0451C110.355 23.8347 110.515 23.5402 110.515 23.1615C110.515 22.7969 110.237 22.4743 109.681 22.1938C109.126 21.8993 108.222 21.5627 106.972 21.1841C103.734 20.2024 102.116 18.1688 102.116 15.0834C102.116 13.8212 102.477 12.7413 103.2 11.8437C103.922 10.9321 104.846 10.273 105.972 9.86627C107.097 9.45955 108.354 9.2562 109.744 9.2562C112.12 9.2562 113.871 9.69797 114.996 10.5815C115.246 10.8199 115.371 10.9391 115.371 10.9391L114.454 13.9474C113.537 13.0358 112.273 12.58 110.661 12.58C109.341 12.58 108.681 12.9727 108.681 13.7581C108.681 13.9825 108.73 14.1718 108.827 14.3261C108.924 14.4663 109.084 14.5925 109.306 14.7047C109.542 14.8029 109.772 14.8871 109.994 14.9572C110.216 15.0133 110.529 15.0974 110.932 15.2096C111.335 15.3078 111.682 15.3989 111.974 15.4831C113.6 16.0301 114.781 16.8014 115.517 17.7971C116.254 18.7929 116.622 20.0341 116.622 21.5207C116.622 25.8402 113.933 28 108.556 28Z" fill="#7F56D9"/>
<path d="M123.278 28C121.402 28 120.089 27.432 119.339 26.296C118.602 25.16 118.234 23.2387 118.234 20.5319V13.3794H116.796V10.4553L119.255 9.67694L121.381 4.77536H125.049V9.67694H128.467V13.3794H124.987V21.2051C124.987 22.3271 125.147 23.0704 125.466 23.435C125.786 23.7996 126.279 23.982 126.946 23.982C127.238 23.982 127.502 23.9469 127.738 23.8768C127.974 23.8067 128.169 23.7085 128.322 23.5823V26.4433C128.113 26.6536 127.842 26.864 127.509 27.0744C127.175 27.2707 126.619 27.4741 125.841 27.6844C125.077 27.8948 124.223 28 123.278 28Z" fill="#7F56D9"/>
<path d="M139.311 25.686L139.103 25.9174C138.964 26.0856 138.749 26.282 138.457 26.5064C138.179 26.7308 137.852 26.9552 137.477 27.1796C137.116 27.404 136.671 27.5933 136.143 27.7476C135.615 27.9159 135.073 28 134.518 28C130.766 28 128.89 26.1277 128.89 22.3832C128.89 21.6539 129.022 20.9877 129.286 20.3847C129.55 19.7676 129.891 19.2487 130.308 18.8279C130.724 18.4072 131.225 18.0356 131.808 17.713C132.392 17.3764 132.975 17.117 133.559 16.9346C134.156 16.7383 134.782 16.577 135.435 16.4508C136.088 16.3246 136.671 16.2404 137.185 16.1983C137.7 16.1563 138.193 16.1352 138.665 16.1352V15.7566C138.665 14.9011 138.436 14.298 137.977 13.9474C137.533 13.5968 136.81 13.4215 135.81 13.4215C134.948 13.4215 134.052 13.5267 133.121 13.737C132.19 13.9334 131.461 14.1718 130.933 14.4523L129.599 11.5913C130.544 10.9742 131.773 10.4343 133.288 9.97145C134.802 9.49462 136.345 9.2562 137.915 9.2562C139.304 9.2562 140.451 9.39644 141.354 9.67694C142.257 9.9434 142.986 10.4062 143.542 11.0654C144.112 11.7105 144.515 12.5379 144.751 13.5477C144.987 14.5435 145.105 15.8127 145.105 17.3554V25.9174L145.689 27.5582H139.978L139.311 25.686ZM137.665 24.2975C137.845 24.2975 138.012 24.2625 138.165 24.1923C138.332 24.1082 138.457 24.0311 138.54 23.9609C138.624 23.8768 138.665 23.8347 138.665 23.8347V18.7859C137.818 18.7859 137.144 19.0243 136.644 19.5011C136.143 19.9639 135.893 20.6862 135.893 21.6679C135.893 23.421 136.484 24.2975 137.665 24.2975Z" fill="#7F56D9"/>
<path d="M153.252 28C151.946 28 150.626 27.7826 149.292 27.3479C147.958 26.8991 147.104 26.4643 146.729 26.0436L147.271 22.6566C147.743 23.1195 148.528 23.5192 149.626 23.8557C150.737 24.1923 151.87 24.3606 153.023 24.3606C153.857 24.3606 154.426 24.2554 154.732 24.0451C155.052 23.8347 155.211 23.5402 155.211 23.1615C155.211 22.7969 154.934 22.4743 154.378 22.1938C153.822 21.8993 152.919 21.5627 151.668 21.1841C148.431 20.2024 146.812 18.1688 146.812 15.0834C146.812 13.8212 147.173 12.7413 147.896 11.8437C148.618 10.9321 149.542 10.273 150.668 9.86627C151.793 9.45955 153.051 9.2562 154.44 9.2562C156.816 9.2562 158.567 9.69797 159.693 10.5815C159.943 10.8199 160.068 10.9391 160.068 10.9391L159.151 13.9474C158.234 13.0358 156.969 12.58 155.357 12.58C154.037 12.58 153.377 12.9727 153.377 13.7581C153.377 13.9825 153.426 14.1718 153.523 14.3261C153.621 14.4663 153.78 14.5925 154.003 14.7047C154.239 14.8029 154.468 14.8871 154.69 14.9572C154.913 15.0133 155.225 15.0974 155.628 15.2096C156.031 15.3078 156.379 15.3989 156.67 15.4831C158.296 16.0301 159.477 16.8014 160.214 17.7971C160.95 18.7929 161.318 20.0341 161.318 21.5207C161.318 25.8402 158.63 28 153.252 28Z" fill="#7F56D9"/>
<path d="M169.558 27.5582H162.805V3.76559L161.555 3.00826V1.05184L168.245 0H169.6V12.3907L169.85 12.0751C170.017 11.8507 170.26 11.5843 170.579 11.2757C170.913 10.9672 171.281 10.6657 171.684 10.3712C172.087 10.0626 172.566 9.80316 173.122 9.59279C173.692 9.36839 174.248 9.2562 174.79 9.2562C176.693 9.2562 178.034 9.78212 178.812 10.834C179.604 11.8858 180 13.6459 180 16.1142C180 16.1983 180 16.3246 180 16.4929C179.986 16.6612 179.979 16.7944 179.979 16.8926V27.5582H173.101V16.2825C173.143 14.9642 172.587 14.305 171.434 14.305C171.323 14.305 171.212 14.312 171.1 14.3261C171.003 14.3401 170.899 14.3752 170.788 14.4313C170.677 14.4874 170.586 14.5294 170.517 14.5575C170.461 14.5855 170.371 14.6416 170.246 14.7258C170.135 14.8099 170.058 14.866 170.017 14.8941C169.989 14.9221 169.906 14.9922 169.767 15.1044C169.642 15.2166 169.572 15.2797 169.558 15.2938V27.5582Z" fill="#7F56D9"/>
</svg>
